<svg id="Layer_1" data-name="Layer 1" xmlns="http://www.w3.org/2000/svg" viewBox="0 0 150 150"><defs><style>.cls-1{fill:#222fb9;}</style></defs><title>edit-blue</title><path class="cls-1" d="M112.53,71.65l17.1-16.85v74.69a18.19,18.19,0,0,1-18.19,18.19H20.51A18.19,18.19,0,0,1,2.32,129.49V38.56A18.19,18.19,0,0,1,20.51,20.37H95.19l-17.5,17H19.45v93.07h93.07Zm.15-52.74,18.41,18.41,6.14-6.14L118.81,12.78ZM129.27,2.32l-6.14,6.14,18.41,18.41,6.14-6.14ZM52.4,79.21,107.63,24,126,42.38,70.81,97.62,44,106Zm9.15.7,3.15,3.2L112,36.57l-3.15-3.2Zm0,0"/></svg>