<svg id="Layer_1" data-name="Layer 1" xmlns="http://www.w3.org/2000/svg" viewBox="0 0 30 30"><defs><style>.cls-1{fill:#77c8a1;}.cls-2{fill:#fff;}</style></defs><title>facebook-icon</title><g id="_Group_" data-name="&lt;Group&gt;"><path id="_Path_" data-name="&lt;Path&gt;" class="cls-1" d="M15,30h0A15,15,0,0,1,0,15H0A15,15,0,0,1,15,0h0A15,15,0,0,1,30,15h0A15,15,0,0,1,15,30Z"/><path id="_Path_2" data-name="&lt;Path&gt;" class="cls-2" d="M12.21,26.06h4.46V14.91h3.11l.33-3.74H16.67V9c0-.88.18-1.23,1-1.23h2.41V3.94H17c-3.32,0-4.81,1.46-4.81,4.25v3H9.89V15h2.32Z"/></g></svg>