<svg id="Layer_1" data-name="Layer 1" xmlns="http://www.w3.org/2000/svg" viewBox="0 0 30 30"><defs><style>.cls-1{fill:#77c8a1;}.cls-2{fill:#fff;}</style></defs><title>google-Icon</title><path id="_Path_" data-name="&lt;Path&gt;" class="cls-1" d="M15,30h0A15,15,0,0,1,0,15H0A15,15,0,0,1,15,0h0A15,15,0,0,1,30,15h0A15,15,0,0,1,15,30Z"/><path id="_Path_2" data-name="&lt;Path&gt;" class="cls-2" d="M22.88,14.5H15.21v2.2h5.17a5.08,5.08,0,0,1-5,4.32,6,6,0,1,1,4.09-10.43l1.7-1.46a8.25,8.25,0,1,0-5.79,14.13c4.38,0,7.54-3.34,7.54-7.9Z"/></svg>