<svg xmlns="http://www.w3.org/2000/svg" viewBox="0 0 150 150"><title>instagram-white</title><path d="M102.21,142.77H47.8A43.84,43.84,0,0,1,4,99V51A43.84,43.84,0,0,1,47.8,7.23h54.41A43.84,43.84,0,0,1,146,51V99A43.84,43.84,0,0,1,102.21,142.77ZM47.8,17A34.1,34.1,0,0,0,13.73,51V99A34.1,34.1,0,0,0,47.8,133h54.41A34.1,34.1,0,0,0,136.27,99V51A34.1,34.1,0,0,0,102.21,17Z" style="fill:#fff"/><path d="M75,114a39,39,0,1,1,39-39A39,39,0,0,1,75,114Zm0-68.23A29.25,29.25,0,1,0,104.25,75,29.28,29.28,0,0,0,75,45.75Z" style="fill:#fff"/><circle cx="113.39" cy="37.22" r="8.09" style="fill:#fff"/></svg>