<svg xmlns="http://www.w3.org/2000/svg" viewBox="0 0 150 150"><title>twitter-white</title><path d="M135.57,33.74a19,19,0,0,1-5.51.72l.1-.58c2.87-2.3,10.1-9.34,11.06-12.63.42-1.42-.08-1.92-.08-2L131.9,23.2l-7.73,3.49h0a30.83,30.83,0,0,0-22.44-9.25c-16.07,0-29.1,11.38-29.1,25.43a37.74,37.74,0,0,0,1.19,9.59c0,.74,0-.74,0,0C63.47,52.19,50.2,47.94,38.39,42,15.09,30.15,13.63,22,13.63,22,10,25.87,8.08,38.73,11.79,48.82c2.38,6.46,10.54,12.26,10.54,12.26h0a24.72,24.72,0,0,1-7.47-1.22,16.51,16.51,0,0,1-5.27-2.57c-2.27,5.55,2.29,15.45,10.17,22.55,4.59,4.14,13,6.74,13,6.74l-13.11.37c-.74,12.75,26.73,20.32,26.73,20.32h0c-8.05,6.19-17.39,10-27.4,10A52.2,52.2,0,0,1,4,115c13.23,10.9,30.23,18.42,48.71,17.45,49-2.58,76.73-44.73,78-86.14l.06.09s2.3-1.15,7.21-6.06a50.77,50.77,0,0,0,8-10.66S138.66,32.89,135.57,33.74Z" style="fill:#fff"/><path d="M141.14,19.28c0,.78,0,.08,0,0Z" style="fill:#fff"/></svg>