<svg xmlns="http://www.w3.org/2000/svg" viewBox="0 0 150 150"><title>whatsapp-white</title><path d="M75,143.5a68.2,68.2,0,0,1-34.16-9.2l-26.69,9.2,5.48-28.26A67.71,67.71,0,0,1,6.5,75,68.5,68.5,0,1,1,75,143.5ZM42.07,123.1l2.06,1.29a58.39,58.39,0,1,0-15.05-13.55l1.43,1.83-3,15.44Z" style="fill:#fff"/><path d="M40.42,48.68s4-7,7.29-7.43,7.5-.4,8.63,1.74,6.22,14.59,6.22,14.59a4.89,4.89,0,0,1-.47,4.21,41.66,41.66,0,0,1-4.35,5.09,3.72,3.72,0,0,0,0,4.42,80.56,80.56,0,0,0,9.64,11.82C72.75,88.48,83,92.31,83,92.31a3.14,3.14,0,0,0,2.41-.74c.94-.94,6-7.29,6-7.29a3.57,3.57,0,0,1,4.35-.87c2.71,1.24,14.45,7.09,14.45,7.09a2.54,2.54,0,0,1,1.37,2.57c0,2.07-.84,7.15-2.56,8.87s-6.73,7-14.27,7-25.5-6.14-35.06-15.7S41.69,74,39.68,65.14,37.94,52.32,40.42,48.68Z" style="fill:#fff"/></svg>